<svg xmlns="http://www.w3.org/2000/svg" xmlns:xlink="http://www.w3.org/1999/xlink" width="500" zoomAndPan="magnify" viewBox="0 0 375 374.999991" height="500" preserveAspectRatio="xMidYMid meet" version="1.0"><defs><clipPath id="id1"><path d="M 208 229 L 323.664062 229 L 323.664062 311 L 208 311 Z M 208 229 " clip-rule="nonzero"/></clipPath><clipPath id="id2"><path d="M 82 37.5 L 323.664062 37.5 L 323.664062 143 L 82 143 Z M 82 37.5 " clip-rule="nonzero"/></clipPath><clipPath id="id3"><path d="M 51.414062 105 L 138 105 L 138 211 L 51.414062 211 Z M 51.414062 105 " clip-rule="nonzero"/></clipPath><clipPath id="id4"><path d="M 55 215 L 253 215 L 253 337.5 L 55 337.5 Z M 55 215 " clip-rule="nonzero"/></clipPath></defs><g clip-path="url(#id1)"><path fill="#51aee5" d="M 270.566406 243.382812 C 270.566406 246.828125 267.765625 249.628906 264.324219 249.628906 C 260.878906 249.628906 258.078125 246.828125 258.078125 243.382812 C 258.078125 239.941406 260.878906 237.140625 264.324219 237.140625 C 267.765625 237.140625 270.566406 239.941406 270.566406 243.382812 Z M 323.648438 243.382812 C 323.648438 237.792969 319.113281 233.257812 313.519531 233.257812 C 308.933594 233.257812 305.0625 236.308594 303.816406 240.492188 L 277.488281 240.492188 C 276.164062 234.441406 270.773438 229.90625 264.324219 229.90625 C 256.878906 229.90625 250.84375 235.941406 250.84375 243.382812 C 250.84375 246.804688 252.121094 249.925781 254.21875 252.300781 C 246.652344 259.363281 237.996094 264.980469 228.621094 268.980469 C 227.46875 264.65625 223.535156 261.464844 218.847656 261.464844 C 213.253906 261.464844 208.71875 266 208.71875 271.589844 C 208.71875 277.179688 213.253906 281.714844 218.847656 281.714844 C 223.097656 281.714844 226.726562 279.097656 228.230469 275.386719 C 239.59375 270.949219 250.027344 264.320312 258.988281 255.757812 C 259.765625 256.097656 260.582031 256.359375 261.429688 256.542969 L 261.429688 283.964844 C 258.601562 284.585938 256.105469 286.089844 254.25 288.175781 L 234.28125 276.996094 L 231.449219 282.046875 L 251.421875 293.222656 C 251.046875 294.457031 250.84375 295.769531 250.84375 297.128906 C 250.84375 304.570312 256.878906 310.605469 264.324219 310.605469 C 271.765625 310.605469 277.800781 304.570312 277.800781 297.128906 C 277.800781 290.679688 273.269531 285.292969 267.21875 283.964844 L 267.21875 256.542969 C 272.265625 255.441406 276.25 251.511719 277.4375 246.496094 L 303.882812 246.496094 C 304.585938 248.671875 306.003906 250.53125 307.867188 251.785156 C 300.316406 265.085938 290.574219 276.789062 279.226562 286.527344 C 280.394531 288.164062 281.300781 290 281.882812 291.96875 C 294.691406 281.191406 305.40625 268.167969 313.53125 253.507812 C 319.121094 253.5 323.648438 248.972656 323.648438 243.382812 " fill-opacity="1" fill-rule="nonzero"/></g><g clip-path="url(#id2)"><path fill="#ffffff" d="M 316.410156 128.605469 C 316.410156 132.046875 313.609375 134.847656 310.167969 134.847656 C 306.722656 134.847656 303.917969 132.046875 303.917969 128.605469 C 303.917969 125.164062 306.722656 122.359375 310.167969 122.359375 C 313.609375 122.359375 316.410156 125.164062 316.410156 128.605469 Z M 259.355469 78.21875 C 254.5 78.21875 250.550781 74.269531 250.550781 69.417969 C 250.550781 64.566406 254.5 60.621094 259.355469 60.621094 C 264.207031 60.621094 268.15625 64.566406 268.15625 69.417969 C 268.15625 74.269531 264.207031 78.21875 259.355469 78.21875 Z M 180.238281 50.976562 C 180.238281 54.417969 177.4375 57.21875 173.992188 57.21875 C 170.550781 57.21875 167.75 54.417969 167.75 50.976562 C 167.75 47.535156 170.550781 44.734375 173.992188 44.734375 C 177.4375 44.734375 180.238281 47.535156 180.238281 50.976562 Z M 164.347656 102.820312 C 164.347656 107.671875 160.398438 111.617188 155.546875 111.617188 C 150.691406 111.617188 146.746094 107.671875 146.746094 102.820312 C 146.746094 97.96875 150.691406 94.023438 155.546875 94.023438 C 160.398438 94.023438 164.347656 97.96875 164.347656 102.820312 Z M 323.644531 128.605469 C 323.644531 121.164062 317.609375 115.128906 310.167969 115.128906 C 302.960938 115.128906 297.078125 120.78125 296.703125 127.890625 L 273.597656 127.890625 C 272.304688 124.949219 269.65625 122.742188 266.4375 122.054688 L 263.683594 87.34375 C 265.953125 86.796875 268.0625 85.832031 269.917969 84.53125 L 294.605469 110.117188 L 298.769531 106.101562 L 274.085938 80.519531 C 276.417969 77.429688 277.800781 73.585938 277.800781 69.417969 C 277.800781 59.234375 269.542969 50.976562 259.355469 50.976562 C 252.742188 50.976562 246.945312 54.457031 243.6875 59.6875 C 227.871094 53.480469 210.949219 50.261719 193.6875 50.261719 C 191.605469 50.261719 189.527344 50.308594 187.457031 50.398438 C 187.15625 43.222656 181.242188 37.5 173.992188 37.5 C 166.546875 37.5 160.511719 43.535156 160.511719 50.976562 C 160.511719 52.085938 160.648438 53.160156 160.902344 54.191406 C 140.003906 59.300781 120.605469 69.292969 104.101562 83.601562 C 105.332031 85.199219 106.246094 87.054688 106.75 89.066406 C 122.710938 74.914062 142.140625 64.589844 163.578125 59.535156 C 164.507812 60.660156 165.613281 61.628906 166.855469 62.40625 L 158.925781 84.695312 C 157.828125 84.492188 156.699219 84.378906 155.546875 84.378906 C 147.359375 84.378906 140.425781 89.710938 138.011719 97.085938 L 102.277344 91.371094 C 101.625 86.40625 97.390625 82.570312 92.246094 82.570312 C 86.652344 82.570312 82.117188 87.105469 82.117188 92.695312 C 82.117188 98.285156 86.652344 102.820312 92.246094 102.820312 C 96.265625 102.820312 99.726562 100.476562 101.363281 97.082031 L 137.097656 102.800781 L 137.097656 102.820312 C 137.097656 113.003906 145.359375 121.261719 155.546875 121.261719 C 165.734375 121.261719 173.992188 113.003906 173.992188 102.820312 C 173.992188 95.832031 170.105469 89.757812 164.378906 86.628906 L 172.308594 64.34375 C 172.859375 64.414062 173.421875 64.453125 173.992188 64.453125 C 177 64.453125 179.773438 63.46875 182.015625 61.804688 L 210.433594 86.558594 L 214.234375 82.195312 L 185.820312 57.441406 C 186.03125 57.058594 186.226562 56.664062 186.398438 56.253906 C 188.8125 56.121094 191.242188 56.046875 193.6875 56.046875 C 210.285156 56.046875 226.4375 59.226562 241.421875 65.105469 C 241.089844 66.492188 240.90625 67.933594 240.90625 69.417969 C 240.90625 79.117188 248.402344 87.0625 257.914062 87.800781 L 260.476562 120.082031 C 253.078125 112.691406 244.605469 106.664062 235.394531 102.148438 C 235.449219 101.730469 235.484375 101.308594 235.484375 100.878906 C 235.484375 95.289062 230.949219 90.753906 225.355469 90.753906 C 221.796875 90.753906 218.671875 92.59375 216.867188 95.367188 C 209.390625 93.492188 201.617188 92.523438 193.6875 92.523438 C 188.019531 92.523438 182.464844 93.027344 177.066406 93.988281 C 177.796875 95.757812 178.316406 97.640625 178.585938 99.597656 C 183.496094 98.753906 188.539062 98.308594 193.6875 98.308594 C 201.054688 98.308594 208.277344 99.207031 215.230469 100.929688 C 215.257812 106.496094 219.78125 111.003906 225.355469 111.003906 C 228.441406 111.003906 231.195312 109.621094 233.054688 107.445312 C 241.90625 111.820312 250.03125 117.679688 257.085938 124.878906 C 255.300781 126.707031 254.195312 129.199219 254.195312 131.957031 C 254.195312 137.546875 258.726562 142.082031 264.324219 142.082031 C 269.328125 142.082031 273.472656 138.445312 274.292969 133.679688 L 297.675781 133.679688 C 299.683594 138.605469 304.515625 142.082031 310.167969 142.082031 C 317.609375 142.082031 323.644531 136.046875 323.644531 128.605469 " fill-opacity="1" fill-rule="nonzero"/></g><g clip-path="url(#id3)"><path fill="#ffffff" d="M 66.878906 152.203125 C 66.878906 155.128906 64.5 157.507812 61.578125 157.507812 C 58.652344 157.507812 56.269531 155.128906 56.269531 152.203125 C 56.269531 149.28125 58.652344 146.902344 61.578125 146.902344 C 64.5 146.902344 66.878906 149.28125 66.878906 152.203125 Z M 100.566406 183.699219 C 105.417969 183.699219 109.367188 187.644531 109.367188 192.496094 C 109.367188 197.347656 105.417969 201.296875 100.566406 201.296875 C 95.714844 201.296875 91.765625 197.347656 91.765625 192.496094 C 91.765625 187.644531 95.714844 183.699219 100.566406 183.699219 Z M 137.941406 118.007812 C 136.675781 116.542969 135.589844 114.921875 134.71875 113.175781 C 128.449219 118.179688 122.832031 123.960938 118.003906 130.371094 C 116.375 129.257812 114.410156 128.605469 112.289062 128.605469 C 106.800781 128.605469 102.339844 132.972656 102.175781 138.421875 L 70.203125 146.917969 C 69.925781 146.464844 69.613281 146.035156 69.269531 145.632812 C 73.9375 131.710938 80.875 118.820312 89.648438 107.410156 C 87.589844 107.046875 85.671875 106.265625 83.996094 105.148438 C 75.429688 116.546875 68.78125 129.105469 64.1875 142.429688 C 63.351562 142.210938 62.480469 142.078125 61.578125 142.078125 C 55.984375 142.078125 51.449219 146.613281 51.449219 152.203125 C 51.449219 156.789062 54.5 160.660156 58.683594 161.902344 L 58.683594 210.9375 L 64.46875 210.9375 L 64.46875 161.902344 C 68.558594 160.6875 71.554688 156.960938 71.6875 152.511719 L 103.664062 144.015625 C 104.625 145.578125 105.992188 146.863281 107.628906 147.710938 C 103.839844 155.933594 101.199219 164.789062 99.90625 174.070312 C 90.023438 174.421875 82.117188 182.535156 82.117188 192.496094 C 82.117188 202.683594 90.378906 210.9375 100.566406 210.9375 C 110.753906 210.9375 119.011719 202.683594 119.011719 192.496094 C 119.011719 184.074219 113.363281 176.976562 105.648438 174.769531 C 106.941406 165.582031 109.644531 156.839844 113.53125 148.769531 C 118.539062 148.15625 122.417969 143.898438 122.417969 138.726562 C 122.417969 137.4375 122.167969 136.207031 121.726562 135.070312 C 126.359375 128.695312 131.8125 122.953125 137.941406 118.007812 " fill-opacity="1" fill-rule="nonzero"/></g><g clip-path="url(#id4)"><path fill="#51aee5" d="M 209.199219 319.058594 C 209.199219 323.910156 205.253906 327.859375 200.398438 327.859375 C 195.546875 327.859375 191.597656 323.910156 191.597656 319.058594 C 191.597656 314.207031 195.546875 310.257812 200.398438 310.257812 C 205.253906 310.257812 209.199219 314.207031 209.199219 319.058594 Z M 179.296875 273.527344 C 179.296875 276.453125 176.917969 278.832031 173.992188 278.832031 C 171.070312 278.832031 168.6875 276.453125 168.6875 273.527344 C 168.6875 270.605469 171.070312 268.222656 173.992188 268.222656 C 176.917969 268.222656 179.296875 270.605469 179.296875 273.527344 Z M 68.640625 236.152344 C 65.195312 236.152344 62.394531 233.351562 62.394531 229.90625 C 62.394531 226.46875 65.195312 223.664062 68.640625 223.664062 C 72.082031 223.664062 74.882812 226.46875 74.882812 229.90625 C 74.882812 233.351562 72.082031 236.152344 68.640625 236.152344 Z M 116.171875 243.382812 C 116.171875 239.941406 118.972656 237.140625 122.417969 237.140625 C 125.859375 237.140625 128.664062 239.941406 128.664062 243.382812 C 128.664062 246.824219 125.859375 249.628906 122.417969 249.628906 C 118.972656 249.628906 116.171875 246.824219 116.171875 243.382812 Z M 252.359375 310.957031 C 250.820312 309.625 249.507812 308.042969 248.480469 306.273438 C 238.992188 310.652344 228.957031 313.914062 218.578125 315.9375 C 217.09375 307.242188 209.523438 300.617188 200.398438 300.617188 C 198.058594 300.617188 195.824219 301.054688 193.765625 301.851562 L 181.359375 280.460938 C 183.066406 278.648438 184.121094 276.214844 184.121094 273.527344 C 184.121094 267.933594 179.585938 263.402344 173.992188 263.402344 C 168.925781 263.402344 164.738281 267.128906 163.996094 271.984375 L 118.222656 278.296875 C 115.925781 270.726562 108.890625 265.210938 100.566406 265.210938 C 96.878906 265.210938 93.445312 266.296875 90.5625 268.160156 C 84.253906 260.144531 78.863281 251.382812 74.539062 242.027344 C 77.207031 240.726562 79.378906 238.570312 80.707031 235.914062 L 108.945312 242.992188 C 108.945312 243.121094 108.9375 243.25 108.9375 243.382812 C 108.9375 250.828125 114.972656 256.859375 122.417969 256.859375 C 129.863281 256.859375 135.898438 250.828125 135.898438 243.382812 C 135.898438 235.941406 129.863281 229.90625 122.417969 229.90625 C 121.765625 229.90625 121.125 229.957031 120.496094 230.046875 L 114.996094 215.414062 L 109.582031 217.449219 L 115.078125 232.082031 C 113.066406 233.390625 111.429688 235.21875 110.351562 237.375 L 82.109375 230.300781 C 82.113281 230.167969 82.117188 230.039062 82.117188 229.90625 C 82.117188 222.464844 76.082031 216.433594 68.640625 216.433594 C 61.195312 216.433594 55.160156 222.464844 55.160156 229.90625 C 55.160156 237.351562 61.195312 243.382812 68.640625 243.382812 C 68.664062 243.382812 68.691406 243.382812 68.71875 243.378906 C 73.304688 253.570312 79.148438 263.210938 86.195312 272.09375 C 83.648438 275.257812 82.117188 279.277344 82.117188 283.652344 C 82.117188 293.835938 90.378906 302.09375 100.566406 302.09375 C 106.347656 302.09375 111.507812 299.429688 114.890625 295.265625 L 137.382812 308.257812 C 137.203125 309.011719 137.097656 309.796875 137.097656 310.605469 C 137.097656 316.195312 141.632812 320.726562 147.226562 320.726562 C 152.820312 320.726562 157.355469 316.195312 157.355469 310.605469 C 157.355469 305.011719 152.820312 300.480469 147.226562 300.480469 C 144.535156 300.480469 142.09375 301.539062 140.28125 303.25 L 117.789062 290.257812 C 118.535156 288.320312 118.960938 286.222656 119.003906 284.03125 L 164.78125 277.71875 C 166.378906 281.21875 169.898438 283.652344 173.992188 283.652344 C 174.808594 283.652344 175.59375 283.546875 176.351562 283.367188 L 188.757812 304.753906 C 184.90625 307.890625 182.347656 312.550781 181.996094 317.820312 C 175.0625 317.199219 168.28125 316.042969 161.691406 314.386719 C 161.175781 316.351562 160.269531 318.160156 159.058594 319.726562 C 166.699219 321.710938 174.546875 323.039062 182.535156 323.679688 C 184.585938 331.628906 191.808594 337.5 200.398438 337.5 C 209.640625 337.5 217.292969 330.703125 218.636719 321.839844 C 230.308594 319.691406 241.636719 316.042969 252.359375 310.957031 " fill-opacity="1" fill-rule="nonzero"/></g></svg>